<?xml version="1.0" standalone="no"?>
<!DOCTYPE svg PUBLIC "-//W3C//DTD SVG 20010904//EN"
 "http://www.w3.org/TR/2001/REC-SVG-20010904/DTD/svg10.dtd">
<svg version="1.0" xmlns="http://www.w3.org/2000/svg"
 width="512.000000pt" height="512.000000pt" viewBox="0 0 512.000000 512.000000"
 preserveAspectRatio="xMidYMid meet">
<metadata>
Created by potrace 1.14, written by Peter Selinger 2001-2017
</metadata>
<g transform="translate(0.000000,512.000000) scale(0.100000,-0.100000)"
fill="#000000" stroke="none">
<path d="M1225 4222 c-67 -24 -99 -71 -109 -163 -4 -31 -8 -66 -10 -76 -3 -11
-7 -44 -11 -74 -3 -30 -11 -85 -16 -124 -6 -38 -13 -89 -16 -113 -3 -25 -25
-78 -52 -125 -100 -174 -178 -390 -207 -571 -3 -21 -7 -47 -9 -58 -25 -127
-22 -397 5 -538 6 -30 13 -68 16 -85 2 -16 16 -70 31 -120 85 -294 234 -546
448 -760 113 -113 144 -138 280 -228 179 -118 228 -135 261 -89 9 13 22 10 92
-18 80 -32 90 -41 83 -82 -4 -25 158 -78 247 -81 37 -2 47 2 66 26 20 25 27
28 72 23 27 -2 64 -5 82 -5 25 -1 32 -5 32 -21 0 -11 11 -27 25 -36 22 -14 42
-16 128 -11 56 4 116 9 132 12 17 3 46 8 65 11 19 3 46 8 60 10 92 14 334 101
440 157 52 27 107 56 122 64 67 35 115 130 105 206 -5 37 -5 38 51 66 82 42
226 138 307 206 140 118 300 300 338 384 37 84 3 200 -73 244 -16 10 -30 22
-30 26 0 5 13 24 28 44 55 68 114 166 127 210 25 85 -19 189 -98 230 -52 27
-132 27 -183 0 -208 -109 -260 -134 -334 -161 -82 -29 -184 -60 -225 -68 -11
-2 -31 -6 -45 -9 -82 -16 -173 -27 -255 -30 -79 -2 -102 -11 -120 -44 -12 -24
-19 -28 -52 -25 -21 2 -57 4 -80 5 -35 2 -43 6 -43 21 0 21 -42 64 -62 65 -23
1 -93 14 -108 19 -8 3 -28 8 -44 11 -109 18 -405 149 -531 233 -214 145 -395
333 -527 548 -40 65 -118 224 -118 239 0 5 39 100 86 213 96 227 105 270 67
331 -30 47 -66 66 -164 83 -46 9 -95 18 -109 21 -45 10 -145 14 -165 7z"/>
</g>
</svg>
